<mxfile host="app.diagrams.net" agent="Mozilla/5.0 (Windows NT 10.0; Win64; x64) AppleWebKit/537.36 (KHTML, like Gecko) Chrome/131.0.0.0 Safari/537.36" version="25.0.1">
  <diagram name="Pagina-1" id="hAarfXw_meTYoNTCz8BX">
    <mxGraphModel dx="1434" dy="746" grid="1" gridSize="10" guides="1" tooltips="1" connect="1" arrows="1" fold="1" page="1" pageScale="1" pageWidth="827" pageHeight="1169" math="0" shadow="0">
      <root>
        <mxCell id="0" />
        <mxCell id="1" parent="0" />
        <mxCell id="4" value="Keycloak&#xa;inloggen" style="whiteSpace=wrap;strokeWidth=2;" parent="1" vertex="1">
          <mxGeometry x="1015" y="641" width="120" height="49" as="geometry" />
        </mxCell>
        <mxCell id="3wPm9dcY4KfJVksnPoh3-55" style="edgeStyle=orthogonalEdgeStyle;rounded=0;orthogonalLoop=1;jettySize=auto;html=1;entryX=0.5;entryY=1;entryDx=0;entryDy=0;" edge="1" parent="1" source="5" target="3wPm9dcY4KfJVksnPoh3-50">
          <mxGeometry relative="1" as="geometry" />
        </mxCell>
        <mxCell id="5" value="Geldig" style="rhombus;strokeWidth=2;whiteSpace=wrap;" parent="1" vertex="1">
          <mxGeometry x="1015" y="435" width="95" height="95" as="geometry" />
        </mxCell>
        <mxCell id="3wPm9dcY4KfJVksnPoh3-51" style="edgeStyle=orthogonalEdgeStyle;rounded=0;orthogonalLoop=1;jettySize=auto;html=1;entryX=1;entryY=0.5;entryDx=0;entryDy=0;" edge="1" parent="1" source="6" target="3wPm9dcY4KfJVksnPoh3-50">
          <mxGeometry relative="1" as="geometry" />
        </mxCell>
        <mxCell id="6" value="naar VBP Hoge resolutie" style="whiteSpace=wrap;strokeWidth=2;" parent="1" vertex="1">
          <mxGeometry x="810" y="250" width="214" height="49" as="geometry" />
        </mxCell>
        <mxCell id="3wPm9dcY4KfJVksnPoh3-53" style="edgeStyle=orthogonalEdgeStyle;rounded=0;orthogonalLoop=1;jettySize=auto;html=1;entryX=0.5;entryY=0;entryDx=0;entryDy=0;" edge="1" parent="1" source="7" target="3wPm9dcY4KfJVksnPoh3-52">
          <mxGeometry relative="1" as="geometry" />
        </mxCell>
        <mxCell id="7" value="Toont foutmelding" style="whiteSpace=wrap;strokeWidth=2;" parent="1" vertex="1">
          <mxGeometry x="1120" y="370" width="192" height="49" as="geometry" />
        </mxCell>
        <mxCell id="10" value="Controleert gebruikersgegevens" style="curved=1;startArrow=none;endArrow=block;exitX=1;exitY=0.5;entryX=0;entryY=0.5;" parent="1" source="4" target="5" edge="1">
          <mxGeometry relative="1" as="geometry">
            <Array as="points" />
          </mxGeometry>
        </mxCell>
        <mxCell id="11" value="Ja" style="curved=1;startArrow=none;endArrow=block;exitX=1;exitY=0.19;entryX=0.29;entryY=1;" parent="1" source="5" target="6" edge="1">
          <mxGeometry relative="1" as="geometry">
            <Array as="points">
              <mxPoint x="830" y="450" />
              <mxPoint x="971" y="254" />
            </Array>
          </mxGeometry>
        </mxCell>
        <mxCell id="12" value="Nee" style="curved=1;startArrow=none;endArrow=block;exitX=1;exitY=0.62;entryX=0;entryY=0.51;" parent="1" source="5" target="7" edge="1">
          <mxGeometry x="0.5279" relative="1" as="geometry">
            <Array as="points">
              <mxPoint x="971" y="330" />
            </Array>
            <mxPoint as="offset" />
          </mxGeometry>
        </mxCell>
        <mxCell id="3wPm9dcY4KfJVksnPoh3-15" value="" style="rounded=0;whiteSpace=wrap;html=1;" vertex="1" parent="1">
          <mxGeometry x="20" y="530" width="290" height="600" as="geometry" />
        </mxCell>
        <mxCell id="3wPm9dcY4KfJVksnPoh3-16" value="Gebruikers" style="rhombus;whiteSpace=wrap;html=1;" vertex="1" parent="1">
          <mxGeometry x="100" y="550" width="80" height="80" as="geometry" />
        </mxCell>
        <mxCell id="3wPm9dcY4KfJVksnPoh3-17" value="Burgers Lage resolutie" style="text;html=1;align=center;verticalAlign=middle;whiteSpace=wrap;rounded=0;" vertex="1" parent="1">
          <mxGeometry x="40" y="1060" width="200" height="30" as="geometry" />
        </mxCell>
        <mxCell id="3wPm9dcY4KfJVksnPoh3-18" value="Stakeholders&amp;nbsp; Hoge resolutie&lt;div&gt;Dept Omgeving&lt;/div&gt;&lt;div&gt;Lokale besturen&lt;/div&gt;" style="text;html=1;align=center;verticalAlign=middle;whiteSpace=wrap;rounded=0;" vertex="1" parent="1">
          <mxGeometry x="40" y="660" width="200" height="30" as="geometry" />
        </mxCell>
        <mxCell id="3wPm9dcY4KfJVksnPoh3-32" style="edgeStyle=orthogonalEdgeStyle;rounded=0;orthogonalLoop=1;jettySize=auto;html=1;entryX=0;entryY=0.75;entryDx=0;entryDy=0;" edge="1" parent="1" source="3wPm9dcY4KfJVksnPoh3-19" target="3wPm9dcY4KfJVksnPoh3-26">
          <mxGeometry relative="1" as="geometry">
            <mxPoint x="320" y="670" as="targetPoint" />
            <Array as="points">
              <mxPoint x="360" y="755" />
              <mxPoint x="360" y="660" />
            </Array>
          </mxGeometry>
        </mxCell>
        <mxCell id="3wPm9dcY4KfJVksnPoh3-19" value="Stakeholders&amp;nbsp; Lage resolutie&lt;div&gt;....&lt;/div&gt;" style="text;html=1;align=center;verticalAlign=middle;whiteSpace=wrap;rounded=0;" vertex="1" parent="1">
          <mxGeometry x="40" y="740" width="200" height="30" as="geometry" />
        </mxCell>
        <mxCell id="3wPm9dcY4KfJVksnPoh3-21" value="Burgers Hoge resolutie" style="text;html=1;align=center;verticalAlign=middle;whiteSpace=wrap;rounded=0;" vertex="1" parent="1">
          <mxGeometry x="40" y="1020" width="200" height="30" as="geometry" />
        </mxCell>
        <mxCell id="3wPm9dcY4KfJVksnPoh3-22" value="Private sector&lt;span style=&quot;color: rgba(0, 0, 0, 0); font-family: monospace; font-size: 0px; text-align: start; text-wrap-mode: nowrap;&quot;&gt;%3CmxGraphModel%3E%3Croot%3E%3CmxCell%20id%3D%220%22%2F%3E%3CmxCell%20id%3D%221%22%20parent%3D%220%22%2F%3E%3CmxCell%20id%3D%222%22%20value%3D%22Burgers%20Hoge%20resolutie%22%20style%3D%22text%3Bhtml%3D1%3Balign%3Dcenter%3BverticalAlign%3Dmiddle%3BwhiteSpace%3Dwrap%3Brounded%3D0%3B%22%20vertex%3D%221%22%20parent%3D%221%22%3E%3CmxGeometry%20x%3D%2240%22%20y%3D%22900%22%20width%3D%22200%22%20height%3D%2230%22%20as%3D%22geometry%22%2F%3E%3C%2FmxCell%3E%3C%2Froot%3E%3C%2FmxGraphModel%3E&lt;/span&gt;&amp;nbsp;Hoge resolutie&lt;div&gt;Studiebureaus?&lt;/div&gt;" style="text;html=1;align=center;verticalAlign=middle;whiteSpace=wrap;rounded=0;" vertex="1" parent="1">
          <mxGeometry x="40" y="800" width="200" height="30" as="geometry" />
        </mxCell>
        <mxCell id="3wPm9dcY4KfJVksnPoh3-23" value="Private sector&lt;span style=&quot;color: rgba(0, 0, 0, 0); font-family: monospace; font-size: 0px; text-align: start; text-wrap-mode: nowrap;&quot;&gt;%mxGraphModel%3E%3Croot%3E%3CmxCell%20id%3D%220%22%2F%3E%3CmxCell%20id%3D%221%22%20parent%3D%220%22%2F%3E%3CmxCell%20id%3D%222%22%20value%3D%22Burgers%20Hoge%20resolutie%22%20style%3D%22text%3Bhtml%3D1%3Balign%3Dcenter%3BverticalAlign%3Dmiddle%3BwhiteSpace%3Dwrap%3Brounded%3D0%3B%22%20vertex%3D%221%22%20parent%3D%221%22%3E%3CmxGeometry%20x%3D%2240%22%20y%3D%22900%22%20width%3D%22200%22%20height%3D%2230%22%20as%3D%22geometry%22%2F%3E%3C%2FmxCell%3E%3C%2Froot%3E%3C%2FmxGraphModel%3E&lt;/span&gt;&amp;nbsp;lage resolutie" style="text;html=1;align=center;verticalAlign=middle;whiteSpace=wrap;rounded=0;" vertex="1" parent="1">
          <mxGeometry x="40" y="860" width="200" height="30" as="geometry" />
        </mxCell>
        <mxCell id="3wPm9dcY4KfJVksnPoh3-37" style="edgeStyle=orthogonalEdgeStyle;rounded=0;orthogonalLoop=1;jettySize=auto;html=1;entryX=0;entryY=0.5;entryDx=0;entryDy=0;exitX=1;exitY=0.5;exitDx=0;exitDy=0;" edge="1" parent="1" source="3wPm9dcY4KfJVksnPoh3-24" target="3wPm9dcY4KfJVksnPoh3-36">
          <mxGeometry relative="1" as="geometry">
            <mxPoint x="430" y="710" as="sourcePoint" />
          </mxGeometry>
        </mxCell>
        <mxCell id="3wPm9dcY4KfJVksnPoh3-24" value="Natuurverenigingen Hoge resolutie" style="text;html=1;align=center;verticalAlign=middle;whiteSpace=wrap;rounded=0;" vertex="1" parent="1">
          <mxGeometry x="40" y="920" width="200" height="30" as="geometry" />
        </mxCell>
        <mxCell id="3wPm9dcY4KfJVksnPoh3-39" style="edgeStyle=orthogonalEdgeStyle;rounded=0;orthogonalLoop=1;jettySize=auto;html=1;entryX=0;entryY=0.75;entryDx=0;entryDy=0;" edge="1" parent="1" source="3wPm9dcY4KfJVksnPoh3-25" target="3wPm9dcY4KfJVksnPoh3-36">
          <mxGeometry relative="1" as="geometry" />
        </mxCell>
        <mxCell id="3wPm9dcY4KfJVksnPoh3-25" value="Natuurverenigingen Lage solutie" style="text;html=1;align=center;verticalAlign=middle;whiteSpace=wrap;rounded=0;" vertex="1" parent="1">
          <mxGeometry x="40" y="970" width="200" height="30" as="geometry" />
        </mxCell>
        <mxCell id="3wPm9dcY4KfJVksnPoh3-43" style="edgeStyle=orthogonalEdgeStyle;rounded=0;orthogonalLoop=1;jettySize=auto;html=1;entryX=0;entryY=0.5;entryDx=0;entryDy=0;" edge="1" parent="1" source="3wPm9dcY4KfJVksnPoh3-26" target="3wPm9dcY4KfJVksnPoh3-42">
          <mxGeometry relative="1" as="geometry" />
        </mxCell>
        <mxCell id="3wPm9dcY4KfJVksnPoh3-26" value="IDM&lt;div&gt;Gebruikersbeheer aan gebruikerskant&lt;/div&gt;&lt;div&gt;~rollen toewijzen&lt;/div&gt;" style="whiteSpace=wrap;html=1;aspect=fixed;" vertex="1" parent="1">
          <mxGeometry x="400" y="540" width="160" height="160" as="geometry" />
        </mxCell>
        <mxCell id="3wPm9dcY4KfJVksnPoh3-31" style="edgeStyle=orthogonalEdgeStyle;rounded=0;orthogonalLoop=1;jettySize=auto;html=1;" edge="1" parent="1" source="3wPm9dcY4KfJVksnPoh3-18" target="3wPm9dcY4KfJVksnPoh3-26">
          <mxGeometry relative="1" as="geometry" />
        </mxCell>
        <mxCell id="3wPm9dcY4KfJVksnPoh3-34" style="edgeStyle=orthogonalEdgeStyle;rounded=0;orthogonalLoop=1;jettySize=auto;html=1;" edge="1" parent="1" source="3wPm9dcY4KfJVksnPoh3-22">
          <mxGeometry relative="1" as="geometry">
            <mxPoint x="455" y="700" as="targetPoint" />
          </mxGeometry>
        </mxCell>
        <mxCell id="3wPm9dcY4KfJVksnPoh3-35" style="edgeStyle=orthogonalEdgeStyle;rounded=0;orthogonalLoop=1;jettySize=auto;html=1;entryX=0.55;entryY=1;entryDx=0;entryDy=0;entryPerimeter=0;" edge="1" parent="1" source="3wPm9dcY4KfJVksnPoh3-23" target="3wPm9dcY4KfJVksnPoh3-26">
          <mxGeometry relative="1" as="geometry" />
        </mxCell>
        <mxCell id="3wPm9dcY4KfJVksnPoh3-44" style="edgeStyle=orthogonalEdgeStyle;rounded=0;orthogonalLoop=1;jettySize=auto;html=1;entryX=0.5;entryY=1;entryDx=0;entryDy=0;" edge="1" parent="1" source="3wPm9dcY4KfJVksnPoh3-36" target="4">
          <mxGeometry relative="1" as="geometry">
            <mxPoint x="1020" y="840" as="targetPoint" />
          </mxGeometry>
        </mxCell>
        <mxCell id="3wPm9dcY4KfJVksnPoh3-45" style="edgeStyle=orthogonalEdgeStyle;rounded=0;orthogonalLoop=1;jettySize=auto;html=1;" edge="1" parent="1" source="3wPm9dcY4KfJVksnPoh3-36">
          <mxGeometry relative="1" as="geometry">
            <mxPoint x="940" y="1010" as="targetPoint" />
          </mxGeometry>
        </mxCell>
        <mxCell id="3wPm9dcY4KfJVksnPoh3-36" value="IDM&lt;div&gt;Gebruikersbeheer aan&amp;nbsp;&lt;/div&gt;&lt;div&gt;VBP kant&lt;/div&gt;&lt;div&gt;~rollen toewijzen&lt;/div&gt;" style="whiteSpace=wrap;html=1;aspect=fixed;" vertex="1" parent="1">
          <mxGeometry x="620" y="930" width="160" height="160" as="geometry" />
        </mxCell>
        <mxCell id="3wPm9dcY4KfJVksnPoh3-38" style="edgeStyle=orthogonalEdgeStyle;rounded=0;orthogonalLoop=1;jettySize=auto;html=1;entryX=0.094;entryY=1.013;entryDx=0;entryDy=0;entryPerimeter=0;" edge="1" parent="1" source="3wPm9dcY4KfJVksnPoh3-24" target="3wPm9dcY4KfJVksnPoh3-26">
          <mxGeometry relative="1" as="geometry">
            <Array as="points">
              <mxPoint x="140" y="910" />
              <mxPoint x="415" y="910" />
            </Array>
          </mxGeometry>
        </mxCell>
        <mxCell id="3wPm9dcY4KfJVksnPoh3-40" style="edgeStyle=orthogonalEdgeStyle;rounded=0;orthogonalLoop=1;jettySize=auto;html=1;entryX=-0.012;entryY=0.65;entryDx=0;entryDy=0;entryPerimeter=0;" edge="1" parent="1" source="3wPm9dcY4KfJVksnPoh3-21" target="3wPm9dcY4KfJVksnPoh3-36">
          <mxGeometry relative="1" as="geometry" />
        </mxCell>
        <mxCell id="3wPm9dcY4KfJVksnPoh3-41" style="edgeStyle=orthogonalEdgeStyle;rounded=0;orthogonalLoop=1;jettySize=auto;html=1;" edge="1" parent="1" source="3wPm9dcY4KfJVksnPoh3-17" target="3wPm9dcY4KfJVksnPoh3-36">
          <mxGeometry relative="1" as="geometry">
            <mxPoint x="396" y="1073" as="targetPoint" />
            <Array as="points">
              <mxPoint x="318" y="1075" />
              <mxPoint x="318" y="1074" />
            </Array>
          </mxGeometry>
        </mxCell>
        <mxCell id="3wPm9dcY4KfJVksnPoh3-47" style="edgeStyle=orthogonalEdgeStyle;rounded=0;orthogonalLoop=1;jettySize=auto;html=1;entryX=0;entryY=0.5;entryDx=0;entryDy=0;" edge="1" parent="1" source="3wPm9dcY4KfJVksnPoh3-42" target="4">
          <mxGeometry relative="1" as="geometry" />
        </mxCell>
        <mxCell id="3wPm9dcY4KfJVksnPoh3-42" value="ACM&lt;div&gt;Toegangsbeheer&lt;/div&gt;" style="whiteSpace=wrap;html=1;aspect=fixed;" vertex="1" parent="1">
          <mxGeometry x="620" y="540" width="160" height="160" as="geometry" />
        </mxCell>
        <mxCell id="3wPm9dcY4KfJVksnPoh3-46" value="" style="curved=1;endArrow=classic;html=1;rounded=0;exitX=1;exitY=0;exitDx=0;exitDy=0;entryX=0.044;entryY=0.006;entryDx=0;entryDy=0;entryPerimeter=0;" edge="1" parent="1" source="3wPm9dcY4KfJVksnPoh3-36" target="3wPm9dcY4KfJVksnPoh3-36">
          <mxGeometry width="50" height="50" relative="1" as="geometry">
            <mxPoint x="580" y="780" as="sourcePoint" />
            <mxPoint x="630" y="730" as="targetPoint" />
            <Array as="points">
              <mxPoint x="630" y="780" />
              <mxPoint x="720" y="880" />
              <mxPoint x="640" y="800" />
            </Array>
          </mxGeometry>
        </mxCell>
        <mxCell id="3wPm9dcY4KfJVksnPoh3-48" value="Gebruikersnaam &amp;amp; wachtwoord &amp;amp; token?" style="text;html=1;align=center;verticalAlign=middle;resizable=0;points=[];autosize=1;strokeColor=none;fillColor=none;" vertex="1" parent="1">
          <mxGeometry x="790" y="978" width="240" height="30" as="geometry" />
        </mxCell>
        <mxCell id="3wPm9dcY4KfJVksnPoh3-49" value="&lt;span style=&quot;color: rgb(0, 0, 0); font-family: Helvetica; font-size: 12px; font-style: normal; font-variant-ligatures: normal; font-variant-caps: normal; font-weight: 400; letter-spacing: normal; orphans: 2; text-align: center; text-indent: 0px; text-transform: none; widows: 2; word-spacing: 0px; -webkit-text-stroke-width: 0px; white-space: nowrap; background-color: rgb(251, 251, 251); text-decoration-thickness: initial; text-decoration-style: initial; text-decoration-color: initial; display: inline !important; float: none;&quot;&gt;Gebruikersnaam &amp;amp; wachtwoord &amp;amp; token?&lt;/span&gt;" style="text;whiteSpace=wrap;html=1;" vertex="1" parent="1">
          <mxGeometry x="770" y="620" width="250" height="40" as="geometry" />
        </mxCell>
        <mxCell id="3wPm9dcY4KfJVksnPoh3-50" value="naar spatial portal hoge resolutie" style="rounded=0;whiteSpace=wrap;html=1;" vertex="1" parent="1">
          <mxGeometry x="590" y="60" width="120" height="60" as="geometry" />
        </mxCell>
        <mxCell id="3wPm9dcY4KfJVksnPoh3-52" value="VBP zonder in te loggen" style="rounded=0;whiteSpace=wrap;html=1;" vertex="1" parent="1">
          <mxGeometry x="1210" y="525" width="120" height="60" as="geometry" />
        </mxCell>
        <mxCell id="3wPm9dcY4KfJVksnPoh3-54" value="OF" style="text;html=1;align=center;verticalAlign=middle;resizable=0;points=[];autosize=1;strokeColor=none;fillColor=none;" vertex="1" parent="1">
          <mxGeometry x="1260" y="448" width="40" height="30" as="geometry" />
        </mxCell>
        <mxCell id="3wPm9dcY4KfJVksnPoh3-63" value="" style="edgeStyle=orthogonalEdgeStyle;rounded=0;orthogonalLoop=1;jettySize=auto;html=1;" edge="1" parent="1" source="3wPm9dcY4KfJVksnPoh3-56" target="3wPm9dcY4KfJVksnPoh3-62">
          <mxGeometry relative="1" as="geometry" />
        </mxCell>
        <mxCell id="3wPm9dcY4KfJVksnPoh3-56" value="Keycloak&#xa;inloggen" style="whiteSpace=wrap;strokeWidth=2;" vertex="1" parent="1">
          <mxGeometry x="1000" y="80" width="120" height="49" as="geometry" />
        </mxCell>
        <mxCell id="3wPm9dcY4KfJVksnPoh3-57" value="Keycloak&#xa;inloggen" style="whiteSpace=wrap;strokeWidth=2;" vertex="1" parent="1">
          <mxGeometry x="580" y="140" width="120" height="49" as="geometry" />
        </mxCell>
        <mxCell id="3wPm9dcY4KfJVksnPoh3-58" value="Ja" style="curved=1;startArrow=none;endArrow=block;exitX=0;exitY=0;exitDx=0;exitDy=0;" edge="1" parent="1" source="5">
          <mxGeometry relative="1" as="geometry">
            <Array as="points">
              <mxPoint x="960" y="266" />
              <mxPoint x="1090" y="380" />
            </Array>
            <mxPoint x="1222" y="280" as="sourcePoint" />
            <mxPoint x="1039" y="220" as="targetPoint" />
          </mxGeometry>
        </mxCell>
        <mxCell id="3wPm9dcY4KfJVksnPoh3-59" value="naar VBP Lage resolutie" style="whiteSpace=wrap;strokeWidth=2;" vertex="1" parent="1">
          <mxGeometry x="950" y="170" width="214" height="49" as="geometry" />
        </mxCell>
        <mxCell id="3wPm9dcY4KfJVksnPoh3-60" value="Keycloak&#xa;inloggen" style="whiteSpace=wrap;strokeWidth=2;" vertex="1" parent="1">
          <mxGeometry x="717" y="150" width="120" height="49" as="geometry" />
        </mxCell>
        <mxCell id="3wPm9dcY4KfJVksnPoh3-61" style="edgeStyle=orthogonalEdgeStyle;rounded=0;orthogonalLoop=1;jettySize=auto;html=1;" edge="1" parent="1" source="3wPm9dcY4KfJVksnPoh3-59" target="3wPm9dcY4KfJVksnPoh3-56">
          <mxGeometry relative="1" as="geometry" />
        </mxCell>
        <mxCell id="3wPm9dcY4KfJVksnPoh3-62" value="naar spatial lage resolutie" style="rounded=0;whiteSpace=wrap;html=1;" vertex="1" parent="1">
          <mxGeometry x="1170" y="69" width="120" height="60" as="geometry" />
        </mxCell>
        <mxCell id="3wPm9dcY4KfJVksnPoh3-64" value="????" style="text;html=1;align=center;verticalAlign=middle;resizable=0;points=[];autosize=1;strokeColor=none;fillColor=none;" vertex="1" parent="1">
          <mxGeometry x="1065" y="48" width="50" height="30" as="geometry" />
        </mxCell>
      </root>
    </mxGraphModel>
  </diagram>
</mxfile>
